<?xml version="1.0" encoding="utf-8"?>
<!-- Generator: Adobe Illustrator 19.0.0, SVG Export Plug-In . SVG Version: 6.00 Build 0)  -->
<svg version="1.1" id="Calque_1" xmlns="http://www.w3.org/2000/svg" xmlns:xlink="http://www.w3.org/1999/xlink" x="0px" y="0px"
	 viewBox="-247 163.2 100 100" style="enable-background:new -247 163.2 100 100;" xml:space="preserve">
<style type="text/css">
	.st0{fill:#FFFFFF;}
</style>
<g id="XMLID_8_">
	<g id="XMLID_18_">
		<path id="XMLID_20_" class="st0" d="M-162.5,213.2c7.8-8,12.5-15.7,13.4-21.7c0.5-3.5-0.3-6.5-2.4-8.8c-2.5-2.8-6.6-4.2-12.1-4.2
			c-4.3,0-9.4,0.9-15.1,2.6c-4.4-11.2-11-17.6-18.2-17.6c-7.2,0-13.7,6.4-18.1,17.5c-5.7-1.7-10.7-2.6-15.1-2.6
			c-5.5,0-9.6,1.4-12.1,4.2c-2.1,2.3-2.9,5.2-2.4,8.8c0.8,6.1,5.5,13.8,13.3,21.8c-7.8,8-12.5,15.7-13.3,21.7
			c-0.5,3.5,0.3,6.5,2.4,8.8c2.5,2.8,6.6,4.2,12.1,4.2c4.3,0,9.4-0.9,15.1-2.6c4.4,11.2,11,17.5,18.2,17.5s13.8-6.4,18.2-17.5
			c5.7,1.7,10.8,2.6,15.1,2.6c5.5,0,9.6-1.4,12.1-4.2c2.1-2.3,2.9-5.2,2.4-8.8C-149.9,228.9-154.6,221.2-162.5,213.2z M-174.1,210.3
			c1.1,1,2.2,1.9,3.3,2.9c-1.1,1-2.2,1.9-3.3,2.9c0-1,0-1.9,0-2.9S-174.1,211.3-174.1,210.3z M-155.8,191.6
			c-0.7,4.8-4.7,11.2-11.4,18.1c-2.3-2.1-4.7-4.2-7.3-6.2c-0.6-6-1.6-11.7-3.2-16.8c10.2-3,18.1-2.9,20.8,0.1
			C-155.9,188.1-155.5,189.6-155.8,191.6z M-174.5,222.8c2.6-2,5-4.1,7.3-6.2c6.7,6.9,10.8,13.3,11.4,18.1c0.3,2-0.1,3.6-1.1,4.7
			c-2.7,3.1-10.6,3.2-20.8,0.1C-176.1,234.5-175.1,228.9-174.5,222.8z M-180.1,227c-0.6,3.9-1.4,7.5-2.4,11c-2.9-1.1-5.9-2.3-9-3.8
			c3.1-1.8,5.9-3.5,8.5-5.2C-182,228.3-181.1,227.7-180.1,227z M-196.9,256.3c-4.7,0-9.3-5-12.7-13.7c4.2-1.5,8.5-3.4,12.7-5.5
			c4.2,2.2,8.5,4,12.7,5.5C-187.6,251.3-192.2,256.3-196.9,256.3z M-210.7,229c2.6,1.7,5.4,3.4,8.5,5.2c-3.1,1.4-6.1,2.7-9,3.8
			c-1-3.4-1.8-7.1-2.4-11C-212.7,227.7-211.7,228.3-210.7,229z M-213.6,199.4c0.6-3.9,1.4-7.5,2.4-11c2.9,1.1,5.9,2.3,9,3.8
			c-3.1,1.8-5.9,3.5-8.5,5.2C-211.7,198.1-212.7,198.7-213.6,199.4z M-196.9,170.1c4.7,0,9.3,5,12.7,13.7c-4.2,1.5-8.5,3.4-12.7,5.5
			c-4.3-2.2-8.5-4-12.7-5.6C-206.2,175.1-201.6,170.1-196.9,170.1z M-183,197.4c-2.6-1.7-5.4-3.4-8.5-5.2c3.1-1.5,6.1-2.7,9-3.8
			c1,3.4,1.8,7.1,2.4,10.9C-181.1,198.7-182,198.1-183,197.4z M-179.1,213.2c0,2.3-0.1,4.6-0.3,7.2c-2.2,1.6-4.4,3.2-6.5,4.6
			c-3.5,2.3-7.2,4.5-11,6.5c-3.8-2-7.5-4.2-11-6.5c-2.2-1.4-4.3-3-6.5-4.6c-0.2-2.5-0.3-4.9-0.3-7.2c0-2.3,0.1-4.6,0.3-7.2
			c2.2-1.6,4.4-3.2,6.5-4.6c3.5-2.3,7.2-4.5,11-6.5c3.8,2,7.5,4.2,11,6.5c2.1,1.4,4.3,3,6.5,4.6
			C-179.2,208.6-179.1,210.9-179.1,213.2z M-219.6,216.1c-1.1-1-2.2-1.9-3.3-2.9c1.1-1,2.2-1.9,3.3-2.9c0,1,0,1.9,0,2.9
			C-219.7,214.2-219.7,215.1-219.6,216.1z M-219.2,203.6c-2.6,2-5,4.1-7.3,6.2c-6.7-7-10.8-13.4-11.4-18.2c-0.3-2,0.1-3.6,1.1-4.7
			c1.4-1.6,4.1-2.4,7.9-2.4c3.6,0,7.9,0.8,12.9,2.2C-217.6,191.9-218.7,197.5-219.2,203.6z M-237.9,234.8
			c0.7-4.8,4.7-11.2,11.4-18.1c2.2,2.1,4.7,4.1,7.3,6.2c0.6,6,1.6,11.7,3.2,16.8c-10.2,3-18.1,2.9-20.8-0.1
			C-237.8,238.3-238.2,236.8-237.9,234.8z"/>
		<circle id="XMLID_12_" class="st0" cx="-196.9" cy="213.2" r="10.3"/>
	</g>
</g>
</svg>
