<?xml version="1.0" encoding="utf-8"?>
<!-- Generator: Adobe Illustrator 19.0.0, SVG Export Plug-In . SVG Version: 6.00 Build 0)  -->
<svg version="1.1" id="Calque_1" xmlns="http://www.w3.org/2000/svg" xmlns:xlink="http://www.w3.org/1999/xlink" x="0px" y="0px"
	 viewBox="-247 163.2 100 100" style="enable-background:new -247 163.2 100 100;" xml:space="preserve">
<style type="text/css">
	.st0{fill:#FFFFFF;}
</style>
<g id="XMLID_9_">
	<g id="XMLID_10_">
		<path id="XMLID_11_" class="st0" d="M-160.9,173.6c-6.8,0-12.4,5.6-12.4,12.4c0,1.3,0.2,2.5,0.5,3.6l-15.6,10.6
			c-2.1-2.2-4.9-3.7-8-4.3v-13.4c4.1-1.1,7.1-4.8,7.1-9.3c0-5.3-4.3-9.6-9.6-9.6c-5.3,0-9.6,4.3-9.6,9.6c0,4.4,3,8.2,7.1,9.3v13.4
			c-6.1,1-10.8,5.8-11.9,11.9h-13.4c-1.1-4.1-4.8-7.1-9.3-7.1c-5.3,0-9.6,4.3-9.6,9.6c0,5.3,4.3,9.6,9.6,9.6c4.4,0,8.2-3,9.3-7.1
			h13.4c0.6,3.7,2.7,7,5.6,9.2l-8.3,16.2c-7.9-2.2-15.7,3.8-15.7,11.9c0,6.8,5.6,12.4,12.4,12.4s12.4-5.5,12.4-12.3
			c0-3.9-1.8-7.4-4.6-9.7l8.3-16.3c4.3,1.3,9,0.6,12.8-2l9.5,9.5c-2.1,3.6-1.6,8.4,1.5,11.6c3.7,3.7,9.8,3.7,13.6,0
			c3.7-3.7,3.7-9.8,0-13.6c-3.2-3.2-7.9-3.6-11.6-1.5l-9.6-9.5c3-4.2,3.5-9.7,1.4-14.4l15.2-10.3c2.3,2.7,5.7,4.4,9.5,4.4
			c6.8,0,12.4-5.6,12.4-12.4C-148.5,179.1-154,173.6-160.9,173.6z M-235.9,214.9c-2.5,0-4.6-2.1-4.6-4.6s2.1-4.6,4.6-4.6
			s4.6,2.1,4.6,4.6S-233.4,214.9-235.9,214.9z M-219.3,257.6c-4.1,0-7.4-3.3-7.4-7.4c0-4.1,3.3-7.4,7.4-7.4c4.1,0,7.4,3.3,7.4,7.4
			C-211.9,254.2-215.2,257.6-219.3,257.6z M-203.5,173.2c0-2.5,2.1-4.6,4.6-4.6s4.6,2.1,4.6,4.6s-2.1,4.6-4.6,4.6
			C-201.4,177.9-203.5,175.8-203.5,173.2z M-198.9,219.9c-5.3,0-9.6-4.3-9.6-9.6s4.3-9.6,9.6-9.6c5.3,0,9.6,4.3,9.6,9.6
			S-193.6,219.9-198.9,219.9z M-176,233.2c1.8-1.8,4.7-1.8,6.5,0s1.8,4.7,0,6.5s-4.7,1.8-6.5,0l0,0
			C-177.8,237.9-177.8,235-176,233.2z M-160.9,193.4c-4.1,0-7.4-3.3-7.4-7.4s3.3-7.4,7.4-7.4c4.1,0,7.4,3.3,7.4,7.4
			S-156.8,193.4-160.9,193.4z"/>
	</g>
</g>
</svg>
