<?xml version="1.0" encoding="utf-8"?>
<!-- Generator: Adobe Illustrator 19.0.0, SVG Export Plug-In . SVG Version: 6.00 Build 0)  -->
<svg version="1.1" id="Calque_1" xmlns="http://www.w3.org/2000/svg" xmlns:xlink="http://www.w3.org/1999/xlink" x="0px" y="0px"
	 viewBox="-247 163.2 100 100" style="enable-background:new -247 163.2 100 100;" xml:space="preserve">
<style type="text/css">
	.st0{fill:#FFFFFF;}
</style>
<path id="XMLID_61_" class="st0" d="M-159.6,185.3c-1.1,0-2.3,0.3-3.2,0.9l-0.8,0.5l-0.8-0.5l-26-15l-0.8-0.5v-0.9
	c0-3.6-2.7-6.3-6.1-6.3c-3.4,0-6.1,2.7-6.1,6.1v0.9l-0.8,0.7l-26,15l-0.8,0.5l-0.8-0.5c-1-0.6-2.1-0.9-3.2-0.9
	c-3.4,0-6.1,2.7-6.1,6.1c0,2.3,1.2,4.3,3.2,5.4l0.8,0.4v1v30.1v0.9l-0.8,0.4c-2,1.1-3.2,3.1-3.2,5.4c0,3.4,2.7,6.1,6.1,6.1
	c1.1,0,2.3-0.3,3.2-0.9l0.8-0.5l0.8,0.5l26,15l0.8,0.5v0.9c0,3.6,2.7,6.3,6.1,6.3c3.4,0,6.1-2.7,6.1-6.1v-0.9l0.8-0.7l26-15l0.8-0.5
	l0.8,0.5c1,0.6,2.1,0.9,3.2,0.9c3.4,0,6.1-2.7,6.1-6.1c0-2.3-1.2-4.3-3.2-5.4l-0.8-0.4v-0.9v-30v-0.9l0.8-0.4c2-1.1,3.2-3.1,3.2-5.4
	C-153.5,188-156.2,185.3-159.6,185.3z M-199.4,219.9V250v0.9l-0.8,0.4l-0.8,0.5l-1.1-0.3l-26-15l-0.8-0.5v-0.9
	c0-2.4-1.2-4.5-3.2-5.6l-0.8-0.4v-0.9v-30v-0.9l0.8-0.4l0.8-0.5l1.1,0.3l26,15l0.8,0.5v0.9c0,2.4,1.2,4.5,3.2,5.6l0.8,0.4
	C-199.4,219.1-199.4,219.9-199.4,219.9z M-200.5,208l-0.8,0.5l-0.8-0.5l-26-15l-0.8-0.5v-0.9v-0.9l0.7-0.9l25.9-15l0.8-0.5l0.8,0.5
	c1,0.6,2.1,1,3.3,1c1.2,0,2.3-0.3,3.3-1l0.8-0.5l0.8,0.5l25.9,15l0.8,0.5v0.9v0.9l-0.7,0.9l-26,15l-0.8,0.5l-0.8-0.5
	c-1-0.6-2.1-0.9-3.2-0.9C-198.5,207.1-199.6,207.4-200.5,208z M-161.7,228.2v0.9l-0.8,0.4c-2,1.1-3.2,3.1-3.2,5.4v0.9l-0.8,0.7
	l-26,15l-0.8,0.5l-0.8-0.5l-0.3-0.2l-0.8-0.4V250v-30.1V219l0.8-0.4c2-1.1,3.2-3.1,3.2-5.4v-0.9l0.8-0.7l26-15l0.8-0.5l0.8,0.5
	l0.8,0.4l0.3,1.1L-161.7,228.2z"/>
</svg>
