<?xml version="1.0" encoding="utf-8"?>
<!-- Generator: Adobe Illustrator 19.0.0, SVG Export Plug-In . SVG Version: 6.00 Build 0)  -->
<svg version="1.1" id="Calque_1" xmlns="http://www.w3.org/2000/svg" xmlns:xlink="http://www.w3.org/1999/xlink" x="0px" y="0px"
	 viewBox="-247 163.2 100 100" style="enable-background:new -247 163.2 100 100;" xml:space="preserve">
<style type="text/css">
	.st0{fill:#FFFFFF;}
</style>
<g id="XMLID_125_" transform="translate(1 1)">
	<g id="XMLID_126_">
		<path id="XMLID_127_" class="st0" d="M-156.3,224.8c4.1,0,7.4-3.3,7.4-7.4c0-3.4-2.4-6.4-5.6-7.2V195c0-0.7-0.6-1.3-1.1-1.7
			l-12-6.1c0.1-0.5,0.2-1,0.2-1.5c0-3.4-2.4-6.4-5.6-7.2v-13.2c0-1.1-0.7-1.9-1.9-1.9c-1.2,0-1.9,0.8-1.9,1.9v13.2
			c-3.2,0.8-5.6,3.8-5.6,7.2c0,0.5,0.1,1,0.2,1.5l-5.8,2.8c-1.4-1.5-3.3-2.5-5.5-2.5s-4.2,1-5.6,2.5l-12.3-6.2
			c-0.6-0.2-1.1-0.2-1.7,0l-12.2,6.2c-1.4-1.5-3.3-2.4-5.5-2.4c-1.7,0-3.4,0.6-4.6,1.6l-9.1-6.8c-0.7-0.6-2-0.4-2.6,0.4
			c-0.6,0.7-0.4,2,0.4,2.6l9.1,6.8c-0.4,0.9-0.6,1.8-0.6,2.8c0,3.4,2.4,6.4,5.6,7.2v15.1c0,0.7,0.4,1.3,1.1,1.7l12.1,6.1
			c-0.1,0.5-0.2,1-0.2,1.5c0,3.5,2.5,6.5,5.8,7.2v7.8c-3.3,0.8-5.8,3.7-5.8,7.2c0,0.5,0,1,0.1,1.4l-12.2,6.2
			c-0.7,0.4-1.1,1.5-0.7,2.4c0.4,0.7,0.9,1.1,1.7,1.1c0.4,0,0.6,0,0.7-0.4l12.1-6.1c1.4,1.7,3.5,2.8,5.8,2.8s4.3-1,5.7-2.6l12.2,6.2
			c0.2,0.2,0.4,0.2,0.7,0.2c0.3,0,0.6,0,0.9-0.2l12-6.1c1.4,1.6,3.4,2.6,5.6,2.6c2.3,0,4.3-1,5.7-2.6l12.2,6.2
			c0.2,0.2,0.4,0.2,0.7,0.2c0.7,0,1.3-0.4,1.7-0.9c0.6-0.9,0.2-2-0.7-2.4l-12.3-6.2c0.1-0.5,0.2-1,0.2-1.6c0-3.4-2.4-6.4-5.6-7.2
			v-7.9c3.2-0.8,5.6-3.8,5.6-7.2c0-0.5-0.1-1.1-0.2-1.6l5.7-2.9C-160.6,223.7-158.6,224.8-156.3,224.8z M-152.6,217.3
			c0,2-1.7,3.7-3.7,3.7c-1.5,0-2.8-0.9-3.4-2.3c-0.1-0.4-0.3-0.8-0.3-1.2c0-0.1,0-0.2,0-0.2c0-0.3,0-0.6,0.1-0.8
			c0-0.2,0.1-0.3,0.1-0.5c0.1-0.4,0.3-0.7,0.6-1c0,0,0-0.1,0.1-0.1c0.7-0.8,1.7-1.3,2.8-1.3l0,0
			C-154.3,213.6-152.6,215.3-152.6,217.3z M-174.9,182c2,0,3.7,1.7,3.7,3.7c0,0.4-0.1,0.8-0.2,1.1c-0.1,0.1-0.1,0.2-0.2,0.3
			c-0.7,1.3-1.9,2-3.3,2c-1.5,0-2.8-0.7-3.3-2c0-0.1-0.1-0.2-0.1-0.2c-0.1-0.4-0.2-0.8-0.2-1.3C-178.6,183.7-177,182-174.9,182z
			 M-196.9,218.8c-0.1-0.4-0.3-0.8-0.3-1.2c0-0.1,0-0.2,0-0.2c0-2,1.7-3.7,3.7-3.7l0,0c1,0,2,0.4,2.6,1.1l0,0
			c0.1,0.1,0.3,0.3,0.4,0.5c0.4,0.6,0.7,1.3,0.7,2.1c0,0.1,0,0.2,0,0.2c0,0.4-0.2,0.8-0.3,1.2c-0.6,1.3-1.9,2.3-3.4,2.3
			C-195,221-196.4,220.1-196.9,218.8z M-193.5,191.3c1.5,0,2.8,0.9,3.4,2.3c0.1,0.4,0.3,0.8,0.3,1.2c0,0.1,0,0.2,0,0.2
			c0,2-1.7,3.7-3.7,3.7s-3.7-1.7-3.7-3.7c0-0.1,0-0.2,0-0.3c0-0.2,0-0.3,0.1-0.5C-196.8,192.6-195.3,191.3-193.5,191.3z M-234.4,195
			c0-2,1.7-3.7,3.7-3.7c1.5,0,2.8,0.9,3.4,2.3c0.1,0.4,0.3,0.8,0.3,1.2c0,0.1,0,0.2,0,0.2c0,2-1.7,3.7-3.7,3.7
			S-234.4,197.1-234.4,195z M-228.8,216.2v-13.9c0.9-0.3,1.8-0.7,2.5-1.3l0.1-0.1l0.1-0.1c0.1,0,0.1-0.1,0.2-0.1l0,0
			c0.2-0.2,0.4-0.3,0.5-0.5l0.1-0.1l0.1-0.1c0.1-0.1,0.1-0.1,0.2-0.2l0,0c0.9-1.1,1.5-2.4,1.6-3.9l0,0c0-0.1,0-0.2,0-0.3
			c0,0,0,0,0-0.1c0-0.1,0-0.2,0-0.4c0-0.6,0-1.1-0.2-1.7l11.3-5.6l11.3,5.6c-0.2,0.4-0.2,0.9-0.2,1.5v0.1v0.1c0,3.4,2.4,6.4,5.6,7.2
			v7.9c-0.9,0.3-1.8,0.7-2.5,1.3l-0.1,0.1l-0.1,0.1c-0.1,0-0.1,0.1-0.2,0.1l0,0c-0.2,0.2-0.4,0.3-0.5,0.5l-0.1,0.1l-0.1,0.1
			c-0.1,0.1-0.1,0.1-0.2,0.2l0,0c-0.9,1.1-1.5,2.4-1.6,3.9l0,0c0,0.1,0,0.2,0,0.3c0,0,0,0,0,0.1c0,0.1,0,0.2,0,0.4
			c0,0.6,0,1.1,0.2,1.7l-5.7,2.8c-0.2-0.3-0.5-0.6-0.8-0.8c-1.2-1.1-2.7-1.7-4.4-1.8c-0.1,0-0.3,0-0.4,0c-0.1,0-0.3,0-0.4,0
			c-1.7,0.1-3.2,0.7-4.4,1.8c-0.3,0.2-0.6,0.5-0.8,0.8L-228.8,216.2z M-215.8,226.6c0-0.4,0.1-0.9,0.2-1.2c0.1-0.1,0.1-0.2,0.2-0.2
			c0.7-1.3,1.9-2,3.3-2c1.5,0,2.8,0.7,3.3,2c0,0.1,0.1,0.2,0.2,0.2c0.1,0.4,0.2,0.8,0.2,1.2c0,2-1.7,3.7-3.7,3.7
			S-215.8,228.7-215.8,226.6z M-212.1,252.6c-2,0-3.7-1.7-3.7-3.7s1.7-3.7,3.7-3.7c2.4,0,3.7,1.3,3.7,3.7
			C-208.4,251-210,252.6-212.1,252.6z M-193.5,256l-11.3-5.6c0-0.1,0-0.1,0-0.2c0.1-0.4,0.1-0.8,0.1-1.3l0,0l0,0l0,0
			c0-3.8-2-6.4-5.4-7.2c0,0,0,0-0.1,0h-0.1v-7.8c0.9-0.3,1.8-0.7,2.5-1.3l0.1-0.1l0.1-0.1c0.1,0,0.1-0.1,0.2-0.1l0,0
			c0.2-0.2,0.4-0.3,0.5-0.5l0.1-0.1l0.1-0.1c0.1-0.1,0.1-0.1,0.2-0.2l0,0c0.9-1.1,1.5-2.4,1.6-3.9l0,0c0-0.1,0-0.2,0-0.3
			c0,0,0,0,0-0.1c0-0.1,0-0.2,0-0.4c0-0.5,0-1-0.1-1.4l5.8-2.9c0.2,0.2,0.4,0.5,0.7,0.7c1.2,1.1,2.7,1.7,4.4,1.8c0.1,0,0.3,0,0.4,0
			c0.1,0,0.3,0,0.4,0c1.7-0.1,3.2-0.7,4.4-1.8c0.3-0.2,0.6-0.5,0.8-0.8l2.8,1.4l2.9,1.4c-0.2,0.4-0.2,0.9-0.2,1.5v0.1v0.1
			c0,3.4,2.4,6.4,5.6,7.2v7.9c-0.9,0.3-1.8,0.7-2.5,1.3l-0.1,0.1l-0.1,0.1c-0.1,0-0.1,0.1-0.2,0.1l0,0c-0.2,0.2-0.4,0.3-0.5,0.5
			l-0.1,0.1l-0.1,0.1c-0.1,0.1-0.1,0.1-0.2,0.2l0,0c-0.9,1.1-1.5,2.4-1.6,3.9l0,0c0,0.1,0,0.2,0,0.3c0,0,0,0,0,0.1
			c0,0.1,0,0.2,0,0.4c0,0.5,0,1,0.1,1.3c0,0.1,0,0.1,0,0.2L-193.5,256z M-171.2,248.9c0,2-1.7,3.7-3.7,3.7c-1.5,0-2.8-0.9-3.4-2.3
			c-0.1-0.4-0.3-0.8-0.3-1.2c0-0.1,0-0.2,0-0.2c0-2,1.7-3.7,3.7-3.7S-171.2,246.9-171.2,248.9z M-174.9,230.3c-2,0-3.7-1.7-3.7-3.7
			c0-0.1,0-0.2,0-0.2c0-0.4,0.2-0.8,0.3-1.2c0.6-1.3,1.9-2.3,3.4-2.3c2,0,3.7,1.7,3.7,3.7S-172.9,230.3-174.9,230.3z M-169.3,221.8
			c-0.2-0.3-0.5-0.6-0.8-0.8c-1.2-1.1-2.7-1.7-4.4-1.8c-0.1,0-0.3,0-0.4,0s-0.3,0-0.4,0c-1.7,0.1-3.2,0.7-4.4,1.8
			c-0.3,0.2-0.6,0.5-0.8,0.8l-2.8-1.4l-2.9-1.4c0.2-0.4,0.2-0.9,0.2-1.5v-0.1v-0.1c0-3.4-2.4-6.4-5.6-7.2v-7.9
			c0.9-0.3,1.8-0.7,2.5-1.3l0.1-0.1l0.1-0.1c0.1,0,0.1-0.1,0.2-0.1l0,0c0.2-0.2,0.4-0.3,0.5-0.5l0.1-0.1l0.1-0.1
			c0.1-0.1,0.1-0.1,0.2-0.2l0,0c0.9-1.1,1.5-2.4,1.6-3.9l0,0c0-0.1,0-0.2,0-0.3c0,0,0,0,0-0.1c0-0.1,0-0.2,0-0.4
			c0-0.3,0-0.6-0.1-0.9c0-0.3-0.1-0.6-0.2-0.9l5.6-2.7c1.3,1.7,3.3,2.6,5.6,2.6h0.1h0.1c2.2,0,4.2-1,5.6-2.5l11,5.5V210
			c-3.2,0.9-5.4,3.7-5.4,7.2c0,0.4,0,0.8,0.1,1.1c0,0.1,0,0.2,0.1,0.4L-169.3,221.8z"/>
	</g>
</g>
</svg>
